<svg width="160" height="160" viewBox="0 0 160 160" fill="none" xmlns="http://www.w3.org/2000/svg">
<circle cx="79.874" cy="79.874" r="79.874" fill="#3E1C4A"/>
<path d="M129.451 51.6425C117.639 56.7682 113.987 60.9235 109.483 74.3652C104.978 60.9235 101.326 56.7682 89.5141 51.6425C101.326 46.5167 104.978 42.3614 109.483 28.9197C113.987 42.3608 117.639 46.5167 129.451 51.6425Z" fill="#FF6A3D"/>
<path d="M81.4836 29.5803C81.7333 29.5803 81.9824 29.5817 82.2307 29.5844C86.7209 29.634 90.0461 33.4948 90.0461 37.9853V40.9456C90.0461 45.321 85.859 48.5647 81.4836 48.5647C63.0622 48.5647 50.8284 61.0798 50.8283 80.2043C50.8283 99.6102 61.7966 111.844 82.7492 111.844C89.9656 111.844 95.3816 110.546 99.3606 108.459C107.724 104.072 100.719 94.5481 91.2756 94.5481H83.8039C79.1053 94.5481 75.2961 90.7389 75.2961 86.0403C75.2961 81.3416 79.1053 77.5325 83.8039 77.5325H125.639C127.736 77.5325 129.436 79.2325 129.436 81.3293L129.546 119.142C129.563 124.814 124.969 129.422 119.296 129.422H117.412C112.791 129.422 109.045 125.676 109.045 121.055V113.321C109.045 112.971 108.762 112.688 108.412 112.688C108.063 112.688 107.78 112.971 107.78 113.321V113.953C107.78 122.109 96.6707 130.828 78.6711 130.828C49.703 130.828 30.2971 111.563 30.2971 81.3293C30.2971 49.83 50.828 29.5803 81.4836 29.5803Z" fill="white"/>
</svg>
