<svg width="48" height="48" viewBox="0 0 48 48" fill="none" xmlns="http://www.w3.org/2000/svg">
<rect width="48" height="48" rx="24" fill="#270A36"/>
<path d="M22.875 29.25C22.5766 29.25 22.2905 29.3685 22.0795 29.5795C21.8685 29.7905 21.75 30.0766 21.75 30.375C21.75 30.6734 21.8685 30.9595 22.0795 31.1705C22.2905 31.3815 22.5766 31.5 22.875 31.5H25.125C25.4234 31.5 25.7095 31.3815 25.9205 31.1705C26.1315 30.9595 26.25 30.6734 26.25 30.375C26.25 30.0766 26.1315 29.7905 25.9205 29.5795C25.7095 29.3685 25.4234 29.25 25.125 29.25H22.875Z" fill="#EECDFF"/>
<path fill-rule="evenodd" clip-rule="evenodd" d="M21 13.5C20.0054 13.5 19.0516 13.8951 18.3483 14.5983C17.6451 15.3016 17.25 16.2554 17.25 17.25V30.75C17.25 31.7446 17.6451 32.6984 18.3483 33.4016C19.0516 34.1049 20.0054 34.5 21 34.5H27C27.9946 34.5 28.9484 34.1049 29.6517 33.4016C30.3549 32.6984 30.75 31.7446 30.75 30.75V17.25C30.75 16.2554 30.3549 15.3016 29.6517 14.5983C28.9484 13.8951 27.9946 13.5 27 13.5H21ZM27 15.75H26.25V16.5C26.25 16.6989 26.171 16.8897 26.0303 17.0303C25.8897 17.171 25.6989 17.25 25.5 17.25H22.5C22.3011 17.25 22.1103 17.171 21.9697 17.0303C21.829 16.8897 21.75 16.6989 21.75 16.5V15.75H21C20.6022 15.75 20.2206 15.908 19.9393 16.1893C19.658 16.4706 19.5 16.8522 19.5 17.25V30.75C19.5 31.1478 19.658 31.5294 19.9393 31.8107C20.2206 32.092 20.6022 32.25 21 32.25H27C27.3978 32.25 27.7794 32.092 28.0607 31.8107C28.342 31.5294 28.5 31.1478 28.5 30.75V17.25C28.5 16.8522 28.342 16.4706 28.0607 16.1893C27.7794 15.908 27.3978 15.75 27 15.75Z" fill="#EECDFF"/>
</svg>
