<svg width="48" height="48" viewBox="0 0 48 48" fill="none" xmlns="http://www.w3.org/2000/svg">
<rect width="48" height="48" rx="24" fill="#270A36"/>
<path fill-rule="evenodd" clip-rule="evenodd" d="M12.8112 20.3292C14.2634 18.8305 16.0025 17.6395 17.9247 16.827C19.847 16.0145 21.9131 15.5972 24 15.6C28.3884 15.6 32.3556 17.4132 35.1888 20.3292C35.3535 20.4988 35.4448 20.7265 35.443 20.963C35.4412 21.1994 35.3464 21.4257 35.1792 21.5928L34.7556 22.0176C34.6712 22.102 34.5708 22.1689 34.4604 22.2142C34.3499 22.2595 34.2315 22.2823 34.1122 22.2814C33.9928 22.2806 33.8748 22.2559 33.765 22.209C33.6552 22.162 33.5559 22.0937 33.4728 22.008C31.0728 19.536 27.7164 18 24 18C20.2836 18 16.9272 19.536 14.5272 22.008C14.4441 22.0937 14.3447 22.162 14.2349 22.209C14.1252 22.2559 14.0072 22.2806 13.8878 22.2814C13.7684 22.2823 13.65 22.2595 13.5396 22.2142C13.4291 22.1689 13.3287 22.102 13.2444 22.0176L12.8208 21.5928C12.6535 21.4257 12.5587 21.1994 12.5569 20.963C12.5551 20.7265 12.6464 20.4988 12.8112 20.3292ZM16.2012 23.7288C17.2084 22.6754 18.4189 21.8372 19.7594 21.2651C21.0999 20.6929 22.5425 20.3986 24 20.4C25.4574 20.3986 26.9001 20.6929 28.2405 21.2651C29.581 21.8372 30.7915 22.6754 31.7988 23.7288C31.9616 23.8987 32.0513 24.1256 32.0489 24.3609C32.0464 24.5962 31.9519 24.8211 31.7856 24.9876L31.3608 25.4124C31.276 25.4971 31.1752 25.564 31.0642 25.6092C30.9532 25.6544 30.8344 25.677 30.7145 25.6757C30.5947 25.6744 30.4764 25.6491 30.3664 25.6014C30.2565 25.5537 30.1572 25.4846 30.0744 25.398C29.2909 24.5757 28.3484 23.9214 27.3041 23.4748C26.2599 23.0282 25.1357 22.7986 24 22.8C21.612 22.8 19.4568 23.796 17.9268 25.398C17.8439 25.4847 17.7445 25.5541 17.6345 25.6019C17.5244 25.6497 17.406 25.675 17.286 25.6763C17.166 25.6776 17.047 25.655 16.9359 25.6097C16.8248 25.5643 16.7239 25.4973 16.6392 25.4124L16.2144 24.9876C16.0478 24.8209 15.9533 24.5956 15.9511 24.36C15.9488 24.1245 16.0391 23.8974 16.2024 23.7276M19.5864 27.1356C20.1483 26.5254 20.8306 26.0383 21.5903 25.7052C22.35 25.372 23.1704 25.2 24 25.2C25.7472 25.2 27.3204 25.9476 28.416 27.1368C28.5734 27.3078 28.6586 27.5331 28.6537 27.7655C28.6488 27.9979 28.5541 28.2194 28.3896 28.3836L27.9648 28.8084C27.8786 28.8944 27.7759 28.9621 27.6629 29.0073C27.5498 29.0526 27.4288 29.0744 27.3071 29.0715C27.1854 29.0685 27.0655 29.041 26.9548 28.9904C26.844 28.9398 26.7447 28.8673 26.6628 28.7772C26.3254 28.4064 25.9142 28.1101 25.4557 27.9074C24.9971 27.7047 24.5013 27.6 24 27.6C22.944 27.6 21.996 28.0524 21.336 28.7772C21.2541 28.8671 21.1548 28.9395 21.0442 28.9899C20.9335 29.0404 20.8138 29.0679 20.6922 29.0708C20.5707 29.0737 20.4498 29.052 20.3368 29.0069C20.2239 28.9618 20.1213 28.8943 20.0352 28.8084L19.6104 28.3836C19.446 28.2192 19.3515 27.9977 19.3468 27.7653C19.3421 27.5329 19.4275 27.3076 19.5852 27.1368M22.9392 30.4392C23.0785 30.2999 23.2438 30.1893 23.4258 30.1139C23.6079 30.0385 23.8029 29.9997 24 29.9997C24.197 29.9997 24.3921 30.0385 24.5741 30.1139C24.7561 30.1893 24.9215 30.2999 25.0608 30.4392C25.2293 30.6079 25.324 30.8367 25.324 31.0752C25.324 31.3137 25.2293 31.5424 25.0608 31.7112L24.636 32.136C24.4672 32.3045 24.2385 32.3992 24 32.3992C23.7615 32.3992 23.5327 32.3045 23.364 32.136L22.9392 31.7124C22.7706 31.5436 22.676 31.3149 22.676 31.0764C22.676 30.8379 22.7706 30.6079 22.9392 30.4392Z" fill="#EECDFF"/>
</svg>
