<svg width="48" height="48" viewBox="0 0 48 48" fill="none" xmlns="http://www.w3.org/2000/svg">
<rect width="48" height="48" rx="24" fill="#270A36"/>
<path fill-rule="evenodd" clip-rule="evenodd" d="M24 13.5C21.2152 13.5 18.5445 14.6062 16.5754 16.5754C14.6062 18.5445 13.5 21.2152 13.5 24C13.5 26.7848 14.6062 29.4555 16.5754 31.4246C18.5445 33.3938 21.2152 34.5 24 34.5C26.7848 34.5 29.4555 33.3938 31.4246 31.4246C33.3938 29.4555 34.5 26.7848 34.5 24C34.5 21.2152 33.3938 18.5445 31.4246 16.5754C29.4555 14.6062 26.7848 13.5 24 13.5ZM20.4855 16.5345C19.0512 17.2103 17.842 18.285 17.0026 19.6301C16.1632 20.9752 15.7293 22.5337 15.7526 24.1191C15.7759 25.7044 16.2556 27.2495 17.1342 28.5693C18.0128 29.8891 19.2531 30.9278 20.7067 31.5611C22.1602 32.1943 23.7655 32.3953 25.3303 32.14C26.8951 31.8846 28.3532 31.1838 29.5301 30.1213C30.707 29.0588 31.5528 27.6797 31.9662 26.1491C32.3797 24.6184 32.3433 23.001 31.8615 21.4905L30.441 20.5455C30.3169 20.4621 30.1676 20.4244 30.0187 20.4389C29.8699 20.4534 29.7307 20.5192 29.625 20.625C29.5195 20.731 29.3804 20.7971 29.2315 20.8119C29.0827 20.8266 28.9333 20.7892 28.809 20.706L28.1085 20.238C27.9777 20.1502 27.8216 20.1082 27.6645 20.1186C27.5073 20.129 27.358 20.1911 27.2399 20.2953C27.1219 20.3995 27.0416 20.5399 27.0118 20.6945C26.9819 20.8492 27.0042 21.0093 27.075 21.15L27.414 21.8295C27.6342 22.2706 27.7489 22.7569 27.7489 23.25C27.7489 23.7431 27.6342 24.2294 27.414 24.6705L27.15 25.2C27.0514 25.3975 27.0001 25.6152 27 25.836V26.001C27 26.6501 26.7895 27.2817 26.4 27.801L25.2 29.4C25.0111 29.6519 24.7478 29.8379 24.4473 29.9318C24.1467 30.0256 23.8243 30.0226 23.5257 29.923C23.227 29.8235 22.9672 29.6325 22.7831 29.3771C22.5991 29.1217 22.5 28.8148 22.5 28.5V27.927C22.4999 27.6485 22.4222 27.3756 22.2757 27.1387C22.1292 26.9019 21.9196 26.7105 21.6705 26.586L21.0375 26.268C20.4773 25.9877 20.0281 25.5264 19.7628 24.9589C19.4975 24.3915 19.4315 23.751 19.5756 23.1414C19.7196 22.5317 20.0653 21.9886 20.5566 21.5999C21.0479 21.2113 21.6561 20.9999 22.2825 21H23.343C23.4354 20.9989 23.5266 20.9783 23.6105 20.9395C23.6944 20.9008 23.7692 20.8448 23.83 20.7751C23.8907 20.7055 23.9361 20.6239 23.9632 20.5355C23.9903 20.4471 23.9984 20.354 23.9871 20.2623C23.9757 20.1706 23.9451 20.0823 23.8973 20.0032C23.8495 19.9241 23.7855 19.856 23.7096 19.8033C23.6337 19.7506 23.5475 19.7145 23.4566 19.6974C23.3658 19.6803 23.2724 19.6825 23.1825 19.704L21.93 20.0175C21.6223 20.0941 21.2993 20.0828 20.9978 19.9849C20.6962 19.887 20.4282 19.7064 20.2242 19.4637C20.0203 19.2209 19.8885 18.9258 19.844 18.6119C19.7995 18.298 19.844 17.9779 19.9725 17.688L20.4855 16.5345Z" fill="#EECDFF"/>
</svg>
