<svg width="48" height="48" viewBox="0 0 48 48" fill="none" xmlns="http://www.w3.org/2000/svg">
<rect width="48" height="48" rx="24" fill="#270A36"/>
<path d="M32.5979 23.0044C32.558 22.8261 32.4752 22.6601 32.3568 22.521C32.2384 22.3818 32.0878 22.2736 31.9182 22.2056L27.1201 20.2866L28.1129 13.6669C28.1493 13.4292 28.1086 13.1861 27.9968 12.9732C27.8849 12.7603 27.7078 12.5888 27.4914 12.484C27.275 12.3791 27.0306 12.3464 26.7942 12.3905C26.5578 12.4347 26.3418 12.5535 26.1779 12.7294L15.6779 23.9794C15.5531 24.1131 15.4627 24.2751 15.4147 24.4516C15.3666 24.628 15.3623 24.8135 15.4021 24.992C15.4419 25.1705 15.5246 25.3366 15.6431 25.4759C15.7615 25.6153 15.9122 25.7236 16.0819 25.7916L20.8801 27.7106L19.8872 34.3331C19.8508 34.5708 19.8915 34.814 20.0033 35.0269C20.1152 35.2398 20.2923 35.4112 20.5087 35.5161C20.7252 35.6209 20.9695 35.6537 21.2059 35.6095C21.4423 35.5653 21.6583 35.4466 21.8222 35.2706L32.3222 24.0206C32.4476 23.8866 32.5382 23.7239 32.5863 23.5468C32.6343 23.3696 32.6383 23.1834 32.5979 23.0044ZM22.6501 31.0828L23.2379 27.1669C23.2754 26.9163 23.2273 26.6603 23.1012 26.4404C22.9751 26.2206 22.7785 26.0498 22.5432 25.9556L18.4444 24.316L25.3501 16.9172L24.7622 20.8331C24.7247 21.0838 24.7728 21.3397 24.8989 21.5596C25.025 21.7794 25.2216 21.9502 25.4569 22.0444L29.5557 23.6841L22.6501 31.0828Z" fill="#EECDFF"/>
</svg>
