<svg width="160" height="160" viewBox="0 0 160 160" fill="none" xmlns="http://www.w3.org/2000/svg">
  <circle cx="79.874" cy="79.874" r="79.874" fill="#3E1C4A"/>
  <path d="M129.451 51.6427C117.639 56.7684 113.987 60.9238 109.483 74.3655C104.978 60.9238 101.327 56.7684 89.5142 51.6427C101.327 46.517 104.978 42.3616 109.483 28.9199C113.987 42.361 117.639 46.517 129.451 51.6427Z" fill="#FF6A3D"/>
  <path d="M81.4836 29.5815C81.7335 29.5815 81.9827 29.5829 82.2311 29.5857C86.7211 29.6353 90.0461 33.4958 90.0461 37.9861V40.9459C90.0461 45.3213 85.859 48.565 81.4836 48.5649C63.0623 48.5649 50.8286 61.0803 50.8284 80.2046C50.8284 99.6104 61.7966 111.845 82.7493 111.845C89.9658 111.845 95.3816 110.547 99.3606 108.459C107.724 104.073 100.719 94.5483 91.2756 94.5483H83.804C79.1053 94.5483 75.2961 90.7392 75.2961 86.0405C75.2963 81.3421 79.1054 77.5337 83.804 77.5337H125.639C127.736 77.5337 129.436 79.2329 129.436 81.3296L129.546 119.142C129.563 124.815 124.969 129.422 119.296 129.422H117.412C112.792 129.422 109.045 125.677 109.045 121.056V113.322C109.045 112.972 108.762 112.689 108.412 112.689C108.063 112.689 107.78 112.972 107.78 113.322V113.955C107.779 122.111 96.6705 130.829 78.6711 130.829C49.703 130.829 30.2971 111.563 30.2971 81.3296C30.2973 49.8305 50.8282 29.5815 81.4836 29.5815Z" fill="white"/>
</svg>
