<svg width="780" height="160" viewBox="0 0 780 160" fill="none" xmlns="http://www.w3.org/2000/svg">
<circle cx="79.874" cy="79.874" r="79.874" fill="white"/>
<path d="M129.451 51.6427C117.639 56.7684 113.987 60.9238 109.483 74.3655C104.978 60.9238 101.327 56.7684 89.5142 51.6427C101.327 46.517 104.978 42.3616 109.483 28.9199C113.987 42.361 117.639 46.517 129.451 51.6427Z" fill="#FF6A3D"/>
<path d="M81.4836 29.5815C81.7335 29.5815 81.9827 29.5829 82.2311 29.5857C86.7211 29.6353 90.0461 33.4958 90.0461 37.9861V40.9459C90.0461 45.3213 85.859 48.565 81.4836 48.5649C63.0623 48.5649 50.8286 61.0803 50.8284 80.2046C50.8284 99.6104 61.7966 111.845 82.7493 111.845C89.9658 111.845 95.3816 110.547 99.3606 108.459C107.724 104.073 100.719 94.5483 91.2756 94.5483H83.804C79.1053 94.5483 75.2961 90.7392 75.2961 86.0405C75.2963 81.3421 79.1054 77.5337 83.804 77.5337H125.639C127.736 77.5337 129.436 79.2329 129.436 81.3296L129.546 119.142C129.563 124.815 124.969 129.422 119.296 129.422H117.412C112.792 129.422 109.045 125.677 109.045 121.056V113.322C109.045 112.972 108.762 112.689 108.412 112.689C108.063 112.689 107.78 112.972 107.78 113.322V113.955C107.779 122.111 96.6705 130.829 78.6711 130.829C49.703 130.829 30.2971 111.563 30.2971 81.3296C30.2973 49.8305 50.8282 29.5815 81.4836 29.5815Z" fill="#3E1C4A"/>
<path d="M719.054 82.2924C719.054 67.2287 730.801 60.3187 750.563 60.3187C758.324 60.3187 764.812 60.9554 770.75 62.4704C774.118 63.3295 776.268 66.4952 776.268 69.9706C776.268 75.671 770.66 79.6343 765.091 78.4195C760.495 77.4171 755.052 76.6263 749.181 76.6263C742.271 76.6263 739.231 78.2847 739.231 81.1868C739.231 91.2754 779.171 85.1946 779.171 110.071C779.171 124.996 767.562 132.459 747.799 132.459C740.006 132.459 733.416 131.817 727.419 130.288C724.085 129.438 721.956 126.306 721.956 122.865C721.956 117.134 727.696 113.136 733.295 114.362C737.905 115.371 743.348 116.151 749.181 116.151C756.091 116.151 759.132 113.94 759.132 111.176C759.132 101.088 719.054 107.03 719.054 82.2924Z" fill="white"/>
<path d="M660.285 94.1777V120.85C660.285 126.422 655.769 130.939 650.197 130.939C644.625 130.939 640.108 126.422 640.108 120.85V95.2833C640.108 74.4152 654.067 60.457 675.626 60.457C696.632 60.457 710.452 74.4152 710.452 95.2833V120.919C710.452 126.453 705.966 130.939 700.432 130.939C694.899 130.939 690.413 126.453 690.413 120.919V94.1777C690.413 85.1947 684.332 79.2522 675.211 79.2522C666.228 79.2522 660.285 85.3329 660.285 94.1777Z" fill="white"/>
<path d="M630.983 95.4215C630.983 97.9402 628.941 99.9821 626.422 99.9821H579.711C580.264 107.998 586.483 114.217 596.848 114.217C600.358 114.217 603.275 113.458 605.533 112.135C609.527 109.795 613.486 106.339 618.115 106.339C624.901 106.339 630.243 112.725 626.589 118.443C620.687 127.677 610.048 132.321 596.018 132.321C574.183 132.321 559.672 117.948 559.672 96.3889C559.672 74.8298 574.183 60.457 596.018 60.457C615.781 60.457 631.121 72.7568 630.983 95.4215ZM580.54 87.6823H609.977C609.286 81.0488 604.172 76.2118 596.433 76.2118C588.279 76.2118 582.613 81.878 580.54 87.6823Z" fill="white"/>
<path d="M540.609 130.939C535.037 130.939 530.521 126.422 530.521 120.85V37.3776C530.521 31.8059 535.037 27.2891 540.609 27.2891C546.181 27.2891 550.698 31.8059 550.698 37.3776V120.85C550.698 126.422 546.181 130.939 540.609 130.939Z" fill="white"/>
<path d="M490.414 60.457C511.835 60.457 521.509 73.586 521.509 95.2833V120.919C521.509 126.453 517.023 130.939 511.49 130.939C505.956 130.939 501.47 126.453 501.47 120.919V94.1777C501.47 84.5037 495.666 79.2522 487.789 79.2522C478.529 79.2522 473.278 85.4711 473.278 94.1777V120.919C473.278 126.453 468.792 130.939 463.258 130.939C457.725 130.939 453.239 126.453 453.239 120.919V94.1777C453.239 85.4711 447.987 79.2522 438.866 79.2522C430.989 79.2522 425.184 84.5037 425.184 94.1777V120.85C425.184 126.422 420.668 130.939 415.096 130.939C409.524 130.939 405.007 126.422 405.007 120.85V95.2833C405.007 73.586 414.681 60.457 436.24 60.457C452.797 60.457 462.29 70.3183 462.627 82.8436C462.637 83.2251 462.946 83.5363 463.327 83.5363C463.709 83.5363 464.017 83.2251 464.028 82.8436C464.365 70.3183 473.858 60.457 490.414 60.457Z" fill="white"/>
<path d="M323.221 97.7709C323.221 73.8624 337.732 60.457 359.568 60.457C381.403 60.457 395.914 74.8298 395.914 96.3889L396.012 120.83C396.034 126.406 391.52 130.939 385.944 130.939H383.131C379.124 130.939 375.875 127.69 375.875 123.683V117.05C375.875 116.706 375.597 116.428 375.254 116.428C374.91 116.428 374.632 116.706 374.632 117.05V117.81C374.632 124.996 367.031 132.321 353.625 132.321C335.383 132.321 323.221 118.777 323.221 97.7709ZM343.26 96.3889C343.26 106.754 349.618 113.526 359.43 113.526C370.347 113.526 375.875 106.477 375.875 96.3889C375.875 86.0239 369.518 79.2522 359.568 79.2522C349.894 79.2522 343.26 86.1621 343.26 96.3889Z" fill="white"/>
<path d="M304.158 130.939C298.587 130.939 294.07 126.422 294.07 120.85V37.3776C294.07 31.8059 298.587 27.2891 304.158 27.2891C309.73 27.2891 314.247 31.8059 314.247 37.3776V120.85C314.247 126.422 309.73 130.939 304.158 130.939Z" fill="white"/>
<path d="M239.003 113.664C248.339 113.664 254.609 111.453 258.627 108.173C264.176 103.643 258.499 96.6654 251.336 96.6654H240.039C235.422 96.6654 231.678 92.922 231.678 88.3043C231.678 83.6867 235.422 79.9433 240.039 79.9433H281.154C283.214 79.9433 284.885 81.6139 284.885 83.6747L284.994 120.836C285.01 126.411 280.495 130.939 274.92 130.939H273.069C268.528 130.939 264.846 127.257 264.846 122.716V115.115C264.846 114.772 264.568 114.493 264.224 114.493C263.881 114.493 263.602 114.772 263.602 115.115V115.737C263.602 123.753 252.685 132.321 234.995 132.321C206.526 132.321 187.454 113.388 187.454 83.6747C187.454 52.718 207.632 32.8173 237.759 32.8173C257.18 32.8173 272.353 41.2315 280.107 54.8904C283.672 61.1693 278.168 67.9199 270.948 67.9199C266.4 67.9199 262.467 65.0814 259.711 61.464C254.844 55.0773 247.652 51.4742 237.759 51.4742C219.655 51.4742 207.632 63.7739 207.632 82.5691C207.632 101.641 218.411 113.664 239.003 113.664Z" fill="white"/>
</svg>
