<svg width="225" height="47" viewBox="0 0 225 47" fill="none" xmlns="http://www.w3.org/2000/svg">
<circle cx="23.063" cy="23.063" r="23.063" fill="#3E1C4A"/>
<path d="M37.3779 14.9115C33.9672 16.3915 32.9129 17.5913 31.6122 21.4725C30.3115 17.5913 29.2572 16.3915 25.8464 14.9115C29.2572 13.4315 30.3115 12.2316 31.6122 8.35046C32.9127 12.2315 33.9672 13.4315 37.3779 14.9115Z" fill="#FF6A3D"/>
<path d="M23.5273 8.5415C23.5996 8.5415 23.6716 8.5419 23.7435 8.5427C25.0399 8.55707 26 9.67183 26 10.9684V11.8227C26 13.0862 24.7908 14.0229 23.5273 14.0229C18.2085 14.0231 14.6758 17.6367 14.6758 23.1587C14.6759 28.7618 17.8437 32.2944 23.8936 32.2944C25.977 32.2944 27.5406 31.9194 28.6895 31.3169C31.1041 30.0503 29.0821 27.3005 26.3555 27.3003H24.1973C22.8408 27.3001 21.7412 26.1998 21.7412 24.8433C21.7413 23.4868 22.8408 22.3874 24.1973 22.3872H36.2773C36.8827 22.3873 37.3729 22.8776 37.373 23.4829L37.4053 34.4009C37.4101 36.0389 36.0833 37.3696 34.4453 37.3696H33.9023C32.5681 37.3696 31.4863 36.2879 31.4863 34.9536V32.7202C31.4862 32.6196 31.4043 32.5378 31.3037 32.5376C31.2029 32.5376 31.1203 32.6194 31.1201 32.7202V32.9028C31.1201 35.2578 27.913 37.7758 22.7158 37.7759C14.3515 37.7759 8.74805 32.2127 8.74805 23.4829C8.74818 14.388 14.6761 8.54167 23.5273 8.5415Z" fill="white"/>
<path d="M207.621 23.7614C207.621 19.4118 211.013 17.4166 216.719 17.4166C218.96 17.4166 220.833 17.6005 222.548 18.0379C223.52 18.286 224.141 19.2 224.141 20.2035C224.141 21.8495 222.522 22.9938 220.914 22.6431C219.587 22.3536 218.015 22.1253 216.32 22.1253C214.325 22.1253 213.447 22.6041 213.447 23.4421C213.447 26.3551 224.979 24.5993 224.979 31.7821C224.979 36.0917 221.627 38.2465 215.921 38.2465C213.671 38.2465 211.768 38.0611 210.036 37.6197C209.074 37.3743 208.459 36.4698 208.459 35.4765C208.459 33.8217 210.116 32.6673 211.733 33.0211C213.064 33.3124 214.636 33.5378 216.32 33.5378C218.315 33.5378 219.193 32.8994 219.193 32.1013C219.193 29.1883 207.621 30.9042 207.621 23.7614Z" fill="#2B0D3A"/>
<path d="M190.652 27.1931V34.8946C190.652 36.5034 189.348 37.8076 187.739 37.8076C186.13 37.8076 184.826 36.5034 184.826 34.8946V27.5124C184.826 21.4868 188.856 17.4565 195.081 17.4565C201.147 17.4565 205.137 21.4868 205.137 27.5124V34.9145C205.137 36.5123 203.842 37.8076 202.244 37.8076C200.646 37.8076 199.351 36.5123 199.351 34.9145V27.1931C199.351 24.5994 197.595 22.8835 194.962 22.8835C192.368 22.8835 190.652 24.6393 190.652 27.1931Z" fill="#2B0D3A"/>
<path d="M182.191 27.5523C182.191 28.2795 181.602 28.8691 180.874 28.8691H167.387C167.547 31.1835 169.342 32.9792 172.335 32.9792C173.349 32.9792 174.191 32.7602 174.843 32.3781C175.996 31.7024 177.139 30.7047 178.476 30.7047C180.435 30.7047 181.978 32.5484 180.922 34.1994C179.218 36.8657 176.147 38.2066 172.096 38.2066C165.791 38.2066 161.601 34.0566 161.601 27.8316C161.601 21.6066 165.791 17.4565 172.096 17.4565C177.802 17.4565 182.231 21.008 182.191 27.5523ZM167.626 25.3176H176.126C175.926 23.4022 174.45 22.0056 172.215 22.0056C169.861 22.0056 168.225 23.6417 167.626 25.3176Z" fill="#2B0D3A"/>
<path d="M156.097 37.8075C154.488 37.8075 153.184 36.5033 153.184 34.8945V10.7925C153.184 9.18371 154.488 7.87952 156.097 7.87952C157.705 7.87952 159.01 9.18371 159.01 10.7925V34.8945C159.01 36.5033 157.705 37.8075 156.097 37.8075Z" fill="#2B0D3A"/>
<path d="M141.603 17.4565C147.788 17.4565 150.582 21.2474 150.582 27.5124V34.9145C150.582 36.5123 149.286 37.8076 147.689 37.8076C146.091 37.8076 144.796 36.5123 144.796 34.9145V27.1931C144.796 24.3998 143.12 22.8835 140.845 22.8835C138.172 22.8835 136.655 24.6792 136.655 27.1931V34.9145C136.655 36.5123 135.36 37.8076 133.762 37.8076C132.164 37.8076 130.869 36.5123 130.869 34.9145V27.1931C130.869 24.6792 129.353 22.8835 126.719 22.8835C124.445 22.8835 122.769 24.3998 122.769 27.1931V34.8946C122.769 36.5034 121.464 37.8076 119.856 37.8076C118.247 37.8076 116.943 36.5034 116.943 27.5124C116.943 21.2474 119.736 17.4565 125.961 17.4565C130.741 17.4565 133.483 20.3039 133.58 23.9205C133.583 24.0306 133.672 24.1205 133.782 24.1205C133.892 24.1205 133.981 24.0306 133.984 23.9205C134.082 20.3039 136.823 17.4565 141.603 17.4565Z" fill="#2B0D3A"/>
<path d="M93.3276 28.2306C93.3276 21.3272 97.5176 17.4565 103.822 17.4565C110.127 17.4565 114.317 21.6066 114.317 27.8316L114.345 34.8888C114.352 36.4989 113.048 37.8076 111.438 37.8076H110.626C109.469 37.8076 108.531 36.8696 108.531 35.7126V33.7972C108.531 33.6981 108.451 33.6177 108.351 33.6177C108.252 33.6177 108.172 33.6981 108.172 33.7972V34.0167C108.172 36.0917 105.977 38.2066 102.107 38.2066C96.8392 38.2066 93.3276 34.296 93.3276 28.2306ZM99.1137 27.8316C99.1137 30.8244 100.949 32.7797 103.782 32.7797C106.935 32.7797 108.531 30.7446 108.531 27.8316C108.531 24.8388 106.695 22.8835 103.822 22.8835C101.029 22.8835 99.1137 24.8787 99.1137 27.8316Z" fill="#2B0D3A"/>
<path d="M87.8234 37.8075C86.2146 37.8075 84.9104 36.5033 84.9104 34.8945V10.7925C84.9104 9.18371 86.2146 7.87952 87.8234 7.87952C89.4322 7.87952 90.7364 9.18371 90.7364 10.7925V34.8945C90.7364 36.5033 89.4322 37.8075 87.8234 37.8075Z" fill="#2B0D3A"/>
<path d="M69.0102 32.8195C71.7059 32.8195 73.5162 32.1813 74.6765 31.2341C76.2788 29.9262 74.6396 27.9114 72.5712 27.9114H69.3095C67.9761 27.9114 66.8953 26.8305 66.8953 25.4972C66.8953 24.1638 67.9761 23.083 69.3094 23.083H81.1809C81.7759 23.083 82.2583 23.5653 82.2583 24.1604L82.2897 34.8903C82.2944 36.5001 80.9907 37.8075 79.381 37.8075H78.8465C77.5352 37.8075 76.4722 36.7445 76.4722 35.4333V33.2385C76.4722 33.1394 76.3918 33.059 76.2927 33.059C76.1935 33.059 76.1131 33.1394 76.1131 33.2385V33.4181C76.1131 35.7325 72.9607 38.2066 67.853 38.2066C59.6327 38.2066 54.126 32.7397 54.126 24.1604C54.126 15.2219 59.952 9.47571 68.651 9.47571C74.2588 9.47571 78.6397 11.9052 80.8787 15.8492C81.908 17.6621 80.3189 19.6113 78.2341 19.6113C76.9209 19.6113 75.7853 18.7917 74.9894 17.7472C73.5841 15.9031 71.5077 14.8627 68.651 14.8627C63.4236 14.8627 59.952 18.4142 59.952 23.8411C59.952 29.3479 63.0645 32.8195 69.0102 32.8195Z" fill="#2B0D3A"/>
</svg>
